<svg width="28" height="19" viewBox="0 0 28 19" fill="none" xmlns="http://www.w3.org/2000/svg">
<g id="_&#208;&#161;&#208;&#187;&#208;&#190;&#208;&#185;_1" clip-path="url(#clip0_2795_2512)">
<g id="Group">
<path id="Vector" d="M3.42237 7.7803C1.53598 7.7803 0 6.24432 0 4.35793C0 2.47153 1.53598 0.9375 3.42237 0.9375C5.30877 0.9375 6.8428 2.47153 6.8428 4.35793C6.8428 6.24432 5.30877 7.77835 3.42237 7.77835V7.7803ZM3.42237 1.7162C1.96621 1.7162 0.780644 2.90176 0.780644 4.35793C0.780644 5.81409 1.96621 6.99966 3.42237 6.99966C4.87854 6.99966 6.0641 5.81409 6.0641 4.35793C6.0641 2.90176 4.87854 1.7162 3.42237 1.7162Z" fill="#7E88A5"/>
<path id="Vector_2" d="M24.5791 7.7803H3.42188V7.0016H24.5791C24.5985 7.0016 24.62 7.0016 24.6394 7.0016C26.0936 6.96072 27.2208 5.79852 27.2208 4.35987C27.2208 2.92123 26.0352 1.71814 24.5791 1.71814H3.42188V0.9375H24.5791C26.4655 0.9375 27.9995 2.47153 27.9995 4.35793C27.9995 6.24432 26.5394 7.72579 24.6784 7.77835C24.655 7.77835 24.618 7.7803 24.5791 7.7803Z" fill="#7E88A5"/>
<path id="Vector_3" d="M24.1279 14.5588H0V4.35791H0.778697V13.7801H23.3492V7.39094H24.1279V14.5588Z" fill="#7E88A5"/>
</g>
<g id="Group_2">
<path id="Vector_4" d="M11.3751 8.75771C10.5945 8.75771 9.8664 8.42481 9.32326 7.81743C9.13638 7.60718 8.89109 7.49232 8.63022 7.49232C8.36936 7.49232 8.12212 7.60718 7.93718 7.81743C7.39404 8.42287 6.66401 8.75771 5.88532 8.75771C5.10662 8.75771 4.37659 8.42481 3.83345 7.81743C3.64656 7.60718 3.40127 7.49232 3.13846 7.49232C2.87565 7.49232 2.63036 7.60718 2.44542 7.81743C1.90228 8.42287 1.17225 8.75771 0.393555 8.75771V8.35279C1.05739 8.35279 1.6784 8.06661 2.14368 7.54878C2.40649 7.25288 2.76079 7.08935 3.13846 7.08935C3.51613 7.08935 3.87044 7.25288 4.13519 7.54878C4.60047 8.06661 5.22148 8.35279 5.88532 8.35279C6.54915 8.35279 7.17017 8.06661 7.63544 7.54878C7.89825 7.25288 8.25256 7.08935 8.63022 7.08935C9.00789 7.08935 9.3622 7.25288 9.62501 7.54878C10.0903 8.06661 10.7113 8.35279 11.3751 8.35279C12.039 8.35279 12.66 8.06661 13.1253 7.54878C13.3881 7.25677 13.7521 7.0874 14.122 7.0874V7.49232C13.8631 7.49232 13.6158 7.60913 13.427 7.81938C12.8839 8.42481 12.1558 8.75965 11.3751 8.75965V8.75771Z" fill="#7E88A5"/>
<path id="Vector_5" d="M22.3702 8.75772C21.5896 8.75772 20.8596 8.42483 20.3184 7.81744C20.223 7.71232 20.114 7.63056 19.9933 7.5741C19.7558 7.46508 19.4929 7.46508 19.2554 7.5741C19.1347 7.62861 19.0257 7.71037 18.9303 7.81744C18.3872 8.42288 17.6591 8.75772 16.8785 8.75772C16.0978 8.75772 15.3678 8.42483 14.8266 7.81744C14.7332 7.71427 14.6241 7.63056 14.5015 7.5741C14.264 7.46508 14.0012 7.46508 13.7637 7.5741C13.643 7.63056 13.532 7.71232 13.4386 7.81744C12.9675 8.34501 12.3367 8.67401 11.6651 8.74215C11.5794 8.75188 11.486 8.75772 11.3848 8.75772V8.3528C11.4704 8.3528 11.5483 8.3489 11.6203 8.34112C12.2024 8.28077 12.7261 8.00822 13.1349 7.54879C13.2653 7.40279 13.4191 7.28793 13.5924 7.20811C13.935 7.05237 14.3282 7.05237 14.6689 7.20811C14.8441 7.28988 14.9979 7.40473 15.1264 7.54879C15.5897 8.06857 16.2107 8.3528 16.8765 8.3528C17.5423 8.3528 18.1633 8.06663 18.6286 7.54879C18.761 7.40084 18.9148 7.28598 19.0861 7.20811C19.4287 7.05237 19.82 7.05237 20.1626 7.20811C20.3359 7.28793 20.4897 7.40279 20.6201 7.54879C21.0854 8.06857 21.7064 8.3528 22.3722 8.3528C22.818 8.3528 23.2541 8.22237 23.6298 7.97318L23.8517 8.30997C23.4098 8.60198 22.8978 8.75577 22.3722 8.75577L22.3702 8.75772Z" fill="#7E88A5"/>
</g>
<g id="Group_3">
<path id="Vector_6" d="M11.3751 10.4843C10.5945 10.4843 9.8664 10.1514 9.32326 9.54399C9.13638 9.33375 8.89109 9.21889 8.63022 9.21889C8.36936 9.21889 8.12212 9.33375 7.93718 9.54399C7.39404 10.1494 6.66401 10.4843 5.88532 10.4843C5.10662 10.4843 4.37659 10.1514 3.83345 9.54399C3.64656 9.33375 3.40127 9.21889 3.13846 9.21889C2.87565 9.21889 2.63036 9.33375 2.44542 9.54399C1.90228 10.1494 1.17225 10.4843 0.393555 10.4843V10.0793C1.05739 10.0793 1.6784 9.79318 2.14368 9.27534C2.40649 8.97944 2.76079 8.81591 3.13846 8.81591C3.51613 8.81591 3.87044 8.97944 4.13519 9.27534C4.60047 9.79318 5.22148 10.0793 5.88532 10.0793C6.54915 10.0793 7.17017 9.79318 7.63544 9.27534C7.89825 8.97944 8.25256 8.81591 8.63022 8.81591C9.00789 8.81591 9.3622 8.97944 9.62501 9.27534C10.0903 9.79318 10.7113 10.0793 11.3751 10.0793C12.039 10.0793 12.66 9.79318 13.1253 9.27534C13.3881 8.98333 13.7521 8.81396 14.122 8.81396V9.21889C13.8631 9.21889 13.6158 9.33569 13.427 9.54594C12.8839 10.1514 12.1558 10.4843 11.3751 10.4843Z" fill="#7E88A5"/>
<path id="Vector_7" d="M22.3702 10.4843C21.5896 10.4843 20.8596 10.1514 20.3184 9.544C20.1315 9.3357 19.8862 9.22084 19.6234 9.22084C19.3606 9.22084 19.1153 9.3357 18.9303 9.544C18.3872 10.1494 17.6591 10.4843 16.8765 10.4843C16.0939 10.4843 15.3659 10.1514 14.8247 9.544C14.6378 9.3357 14.3925 9.22084 14.1316 9.22084C13.8708 9.22084 13.6235 9.3357 13.4386 9.544C12.9675 10.0716 12.3367 10.4006 11.6651 10.4687C11.5794 10.4784 11.486 10.4843 11.3848 10.4843V10.0794C11.4704 10.0794 11.5483 10.0755 11.6203 10.0677C12.2024 10.0073 12.7261 9.73478 13.1349 9.27535C13.3977 8.97944 13.752 8.81592 14.1297 8.81592C14.5073 8.81592 14.8616 8.97944 15.1264 9.27535C15.5897 9.79318 16.2107 10.0794 16.8746 10.0794C17.5384 10.0794 18.1614 9.79318 18.6266 9.27535C18.8895 8.97944 19.2438 8.81592 19.6214 8.81592C19.9991 8.81592 20.3534 8.97944 20.6182 9.27535C21.0834 9.79318 21.7044 10.0794 22.3683 10.0794C22.8141 10.0794 23.2502 9.94892 23.6259 9.69974L23.8478 10.0365C23.4059 10.3285 22.8939 10.4823 22.3683 10.4823L22.3702 10.4843Z" fill="#7E88A5"/>
</g>
<g id="Group_4">
<path id="Vector_8" d="M11.3751 12.2108C10.5945 12.2108 9.8664 11.8779 9.32326 11.2706C9.13638 11.0603 8.89109 10.9454 8.63022 10.9454C8.36936 10.9454 8.12212 11.0603 7.93718 11.2706C7.39404 11.876 6.66401 12.2108 5.88532 12.2108C5.10662 12.2108 4.37659 11.8779 3.83345 11.2706C3.64656 11.0603 3.40127 10.9454 3.13846 10.9454C2.87565 10.9454 2.63036 11.0603 2.44542 11.2706C1.90228 11.876 1.17225 12.2108 0.393555 12.2108V11.8059C1.05739 11.8059 1.6784 11.5197 2.14368 11.0019C2.40649 10.706 2.76079 10.5425 3.13846 10.5425C3.51613 10.5425 3.87044 10.706 4.13519 11.0019C4.60047 11.5197 5.22148 11.8059 5.88532 11.8059C6.54915 11.8059 7.17017 11.5197 7.63544 11.0019C7.89825 10.706 8.25256 10.5425 8.63022 10.5425C9.00789 10.5425 9.3622 10.706 9.62501 11.0019C10.0903 11.5197 10.7113 11.8059 11.3751 11.8059C12.039 11.8059 12.66 11.5197 13.1253 11.0019C13.3881 10.7099 13.7521 10.5405 14.122 10.5405V10.9454C13.8631 10.9454 13.6158 11.0623 13.427 11.2725C12.8839 11.8779 12.1558 12.2128 11.3751 12.2128V12.2108Z" fill="#7E88A5"/>
<path id="Vector_9" d="M22.3702 12.2108C21.5896 12.2108 20.8596 11.8779 20.3184 11.2706C20.1315 11.0623 19.8862 10.9474 19.6234 10.9474C19.3606 10.9474 19.1153 11.0623 18.9303 11.2706C18.3872 11.876 17.6591 12.2108 16.8765 12.2108C16.0939 12.2108 15.3659 11.8779 14.8247 11.2706C14.6378 11.0623 14.3925 10.9474 14.1316 10.9474C13.8708 10.9474 13.6235 11.0623 13.4386 11.2706C12.9675 11.7981 12.3367 12.1271 11.6651 12.1953C11.5794 12.205 11.486 12.2108 11.3848 12.2108V11.8059C11.4704 11.8059 11.5483 11.802 11.6203 11.7942C12.2024 11.7339 12.7261 11.4613 13.1349 11.0019C13.3977 10.706 13.752 10.5425 14.1297 10.5425C14.5073 10.5425 14.8616 10.706 15.1264 11.0019C15.5897 11.5197 16.2107 11.8059 16.8746 11.8059C17.5384 11.8059 18.1614 11.5197 18.6266 11.0019C18.8895 10.706 19.2438 10.5425 19.6214 10.5425C19.9991 10.5425 20.3534 10.706 20.6182 11.0019C21.0834 11.5197 21.7044 11.8059 22.3683 11.8059C22.8141 11.8059 23.2502 11.6755 23.6259 11.4263L23.8478 11.7631C23.4059 12.0551 22.8939 12.2089 22.3683 12.2089L22.3702 12.2108Z" fill="#7E88A5"/>
</g>
<g id="Group_5">
<path id="Vector_10" d="M11.3751 13.9379C10.5945 13.9379 9.8664 13.605 9.32326 12.9976C9.13638 12.7874 8.89109 12.6725 8.63022 12.6725C8.36936 12.6725 8.12212 12.7874 7.93718 12.9976C7.39404 13.603 6.66401 13.9379 5.88532 13.9379C5.10662 13.9379 4.37659 13.605 3.83345 12.9976C3.64656 12.7874 3.40127 12.6725 3.13846 12.6725C2.87565 12.6725 2.63036 12.7874 2.44542 12.9976C1.90228 13.603 1.17225 13.9379 0.393555 13.9379V13.533C1.05739 13.533 1.6784 13.2468 2.14368 12.729C2.40649 12.4331 2.76079 12.2695 3.13846 12.2695C3.51613 12.2695 3.87044 12.4331 4.13519 12.729C4.60047 13.2468 5.22148 13.533 5.88532 13.533C6.54915 13.533 7.17017 13.2468 7.63544 12.729C7.89825 12.4331 8.25256 12.2695 8.63022 12.2695C9.00789 12.2695 9.3622 12.4331 9.62501 12.729C10.0903 13.2468 10.7113 13.533 11.3751 13.533C12.039 13.533 12.66 13.2468 13.1253 12.729C13.3881 12.4369 13.7521 12.2676 14.122 12.2676V12.6725C13.8631 12.6725 13.6158 12.7893 13.427 12.9996C12.8839 13.605 12.1558 13.9379 11.3751 13.9379Z" fill="#7E88A5"/>
<path id="Vector_11" d="M22.3702 13.9379C21.5896 13.9379 20.8596 13.605 20.3184 12.9976C20.1315 12.7893 19.8862 12.6745 19.6234 12.6745C19.3606 12.6745 19.1153 12.7893 18.9303 12.9976C18.3872 13.6031 17.6591 13.9379 16.8765 13.9379C16.0939 13.9379 15.3659 13.605 14.8247 12.9976C14.6378 12.7893 14.3925 12.6745 14.1316 12.6745C13.8708 12.6745 13.6235 12.7893 13.4386 12.9976C12.9675 13.5252 12.3367 13.8542 11.6651 13.9223C11.5794 13.932 11.486 13.9379 11.3848 13.9379V13.533C11.4704 13.533 11.5483 13.5291 11.6203 13.5213C12.2024 13.4609 12.7261 13.1884 13.1349 12.729C13.3977 12.4331 13.752 12.2695 14.1297 12.2695C14.5073 12.2695 14.8616 12.4331 15.1264 12.729C15.5897 13.2468 16.2107 13.533 16.8746 13.533C17.5384 13.533 18.1614 13.2468 18.6266 12.729C18.8895 12.4331 19.2438 12.2695 19.6214 12.2695C19.9991 12.2695 20.3534 12.4331 20.6182 12.729C21.0834 13.2468 21.7044 13.533 22.3683 13.533C22.8141 13.533 23.2502 13.4025 23.6259 13.1534L23.8478 13.4901C23.4059 13.7822 22.8939 13.9359 22.3683 13.9359L22.3702 13.9379Z" fill="#7E88A5"/>
</g>
<g id="Group_6">
<path id="Vector_12" d="M26.2149 16.8096H1.52051V17.5883H26.2149V16.8096Z" fill="#7E88A5"/>
<path id="Vector_13" d="M25.5596 16.3345L25.9275 17.1988L25.5596 18.0632L27.6114 17.1988L25.5596 16.3345Z" fill="#7E88A5"/>
<path id="Vector_14" d="M2.17687 16.3345L1.81089 17.1988L2.17687 18.0632L0.126953 17.1988L2.17687 16.3345Z" fill="#7E88A5"/>
</g>
</g>
<defs>
<clipPath id="clip0_2795_2512">
<rect width="28" height="17.1255" fill="white" transform="translate(0 0.9375)"/>
</clipPath>
</defs>
</svg>
