<svg width="28" height="17" viewBox="0 0 28 17" fill="none" xmlns="http://www.w3.org/2000/svg">
<g id="_&#195;&#144;&#194;&#161;&#195;&#144;&#194;&#187;&#195;&#144;&#194;&#190;&#195;&#144;&#194;&#185;_1" clip-path="url(#clip0_2792_2741)">
<g id="Group">
<g id="Group_2">
<path id="Vector" d="M24.581 7.08115H11.3809V6.30272H24.581C26.0367 6.30272 27.2218 5.11756 27.2218 3.66191C27.2218 2.20625 26.0367 1.0211 24.581 1.0211H11.3809V0.240723H24.581C26.4668 0.240723 28.0003 1.77422 28.0003 3.65996C28.0003 5.5457 26.4668 7.0792 24.581 7.0792V7.08115Z" fill="#7E88A5"/>
<path id="Vector_2" d="M25.4982 16.8855H12.3604V6.59082H13.1388V16.1071H24.7198V6.69202H25.4982V16.8855Z" fill="#7E88A5"/>
</g>
<g id="Group_3">
<path id="Vector_3" d="M3.41826 7.08115C1.53252 7.08115 -0.000976562 5.5457 -0.000976562 3.65996C-0.000976562 1.77422 1.53252 0.240723 3.41826 0.240723C5.304 0.240723 6.8375 1.77422 6.8375 3.65996C6.8375 5.5457 5.304 7.0792 3.41826 7.0792V7.08115ZM3.41826 1.01915C1.9626 1.01915 0.77745 2.2043 0.77745 3.65996C0.77745 5.11562 1.9626 6.30077 3.41826 6.30077C4.87392 6.30077 6.05907 5.11562 6.05907 3.65996C6.05907 2.2043 4.87392 1.01915 3.41826 1.01915Z" fill="#7E88A5"/>
<path id="Vector_4" d="M13.5891 7.08115H3.41895V6.30272H13.5871C15.0428 6.30272 16.228 5.11756 16.228 3.66191C16.228 2.20625 15.0428 1.0211 13.5871 1.0211H3.41895V0.240723H13.5871C15.4729 0.240723 17.0064 1.77422 17.0064 3.65996C17.0064 5.5457 15.4729 7.0792 13.5871 7.0792L13.5891 7.08115Z" fill="#7E88A5"/>
<path id="Vector_5" d="M13.1369 13.8575H-0.000976562V3.66016H0.77745V13.0791H12.3585V6.69213H13.1369V13.8575Z" fill="#7E88A5"/>
</g>
<g id="Group_4">
<path id="Vector_6" d="M11.3684 8.05791C10.588 8.05791 9.86018 7.72513 9.31723 7.11796C9.13041 6.90778 8.8852 6.79296 8.62443 6.79296C8.36366 6.79296 8.11651 6.90778 7.93163 7.11796C7.38868 7.72318 6.6589 8.05791 5.88048 8.05791C5.10205 8.05791 4.37228 7.72513 3.82932 7.11796C3.6425 6.90778 3.3973 6.79296 3.13458 6.79296C2.87186 6.79296 2.62666 6.90778 2.44178 7.11796C1.89883 7.72318 1.16905 8.05791 0.390625 8.05791V7.65313C1.05423 7.65313 1.67503 7.36705 2.14014 6.8494C2.40286 6.5536 2.75704 6.39013 3.13458 6.39013C3.51212 6.39013 3.8663 6.5536 4.13096 6.8494C4.59607 7.36705 5.21687 7.65313 5.88048 7.65313C6.54409 7.65313 7.16488 7.36705 7.62999 6.8494C7.89271 6.5536 8.24689 6.39013 8.62443 6.39013C9.00197 6.39013 9.35615 6.5536 9.61887 6.8494C10.084 7.36705 10.7048 7.65313 11.3684 7.65313C12.032 7.65313 12.6528 7.36705 13.1179 6.8494C13.3806 6.55749 13.7445 6.38818 14.1143 6.38818V6.79296C13.8555 6.79296 13.6083 6.90973 13.4195 7.1199C12.8766 7.72513 12.1488 8.05985 11.3684 8.05985V8.05791Z" fill="#7E88A5"/>
<path id="Vector_7" d="M22.3596 8.05791C21.5792 8.05791 20.8514 7.72513 20.3084 7.11796C20.1216 6.90778 19.8764 6.79296 19.6156 6.79296C19.3549 6.79296 19.1077 6.90778 18.9228 7.11796C18.3799 7.72318 17.6501 8.05791 16.8717 8.05791C16.0933 8.05791 15.3635 7.72513 14.8205 7.11796C14.6337 6.90778 14.3885 6.79296 14.1258 6.79296C13.865 6.79296 13.6179 6.90778 13.433 7.11796C12.89 7.72318 12.1603 8.05791 11.3818 8.05791V7.65313C12.0454 7.65313 12.6662 7.36705 13.1333 6.8494C13.396 6.5536 13.7502 6.39013 14.1277 6.39013C14.5053 6.39013 14.8595 6.5536 15.1241 6.8494C15.5892 7.36705 16.21 7.65313 16.8736 7.65313C17.5372 7.65313 18.158 7.36705 18.6231 6.8494C18.8859 6.5536 19.2401 6.39013 19.6176 6.39013C19.9951 6.39013 20.3493 6.5536 20.612 6.8494C21.0771 7.36705 21.6979 7.65313 22.3615 7.65313C23.0252 7.65313 23.6459 7.36705 24.1111 6.8494C24.3738 6.55749 24.7377 6.38818 25.1074 6.38818V6.79296C24.8486 6.79296 24.6015 6.90973 24.4127 7.1199C23.8697 7.72513 23.1419 8.05791 22.3615 8.05791H22.3596Z" fill="#7E88A5"/>
</g>
<g id="Group_5">
<path id="Vector_8" d="M11.3684 9.78398C10.588 9.78398 9.86018 9.45121 9.31723 8.84403C9.13041 8.63386 8.8852 8.51904 8.62443 8.51904C8.36366 8.51904 8.11651 8.63386 7.93163 8.84403C7.38868 9.44926 6.6589 9.78398 5.88048 9.78398C5.10205 9.78398 4.37228 9.45121 3.82932 8.84403C3.6425 8.63386 3.3973 8.51904 3.13458 8.51904C2.87186 8.51904 2.62666 8.63386 2.44178 8.84403C1.89883 9.44926 1.16905 9.78398 0.390625 9.78398V9.3792C1.05423 9.3792 1.67503 9.09313 2.14014 8.57548C2.40286 8.27967 2.75704 8.1162 3.13458 8.1162C3.51212 8.1162 3.8663 8.27967 4.13096 8.57548C4.59607 9.09313 5.21687 9.3792 5.88048 9.3792C6.54409 9.3792 7.16488 9.09313 7.62999 8.57548C7.89271 8.27967 8.24689 8.1162 8.62443 8.1162C9.00197 8.1162 9.35615 8.27967 9.61887 8.57548C10.084 9.09313 10.7048 9.3792 11.3684 9.3792C12.032 9.3792 12.6528 9.09313 13.1179 8.57548C13.3806 8.28357 13.7445 8.11426 14.1143 8.11426V8.51904C13.8555 8.51904 13.6083 8.6358 13.4195 8.84598C12.8766 9.45121 12.1488 9.78398 11.3684 9.78398Z" fill="#7E88A5"/>
<path id="Vector_9" d="M22.3596 9.78398C21.5792 9.78398 20.8514 9.45121 20.3084 8.84403C20.1216 8.63386 19.8764 8.51904 19.6156 8.51904C19.3549 8.51904 19.1077 8.63386 18.9228 8.84403C18.3799 9.44926 17.6501 9.78398 16.8717 9.78398C16.0933 9.78398 15.3635 9.45121 14.8205 8.84403C14.6337 8.63386 14.3885 8.51904 14.1258 8.51904C13.865 8.51904 13.6179 8.63386 13.433 8.84403C12.89 9.44926 12.1603 9.78398 11.3818 9.78398V9.3792C12.0454 9.3792 12.6662 9.09313 13.1333 8.57548C13.396 8.27967 13.7502 8.1162 14.1277 8.1162C14.5053 8.1162 14.8595 8.27967 15.1241 8.57548C15.5892 9.09313 16.21 9.3792 16.8736 9.3792C17.5372 9.3792 18.158 9.09313 18.6231 8.57548C18.8859 8.27967 19.2401 8.1162 19.6176 8.1162C19.9951 8.1162 20.3493 8.27967 20.612 8.57548C21.0771 9.09313 21.6979 9.3792 22.3615 9.3792C23.0252 9.3792 23.6459 9.09313 24.1111 8.57548C24.3738 8.28357 24.7377 8.11426 25.1074 8.11426V8.51904C24.8486 8.51904 24.6015 8.6358 24.4127 8.84598C23.8697 9.45121 23.1419 9.78398 22.3615 9.78398H22.3596Z" fill="#7E88A5"/>
</g>
<g id="Group_6">
<path id="Vector_10" d="M11.3684 11.5105C10.588 11.5105 9.86018 11.1778 9.31723 10.5706C9.13041 10.3604 8.8852 10.2456 8.62443 10.2456C8.36366 10.2456 8.11651 10.3604 7.93163 10.5706C7.38868 11.1758 6.6589 11.5105 5.88048 11.5105C5.10205 11.5105 4.37228 11.1778 3.82932 10.5706C3.6425 10.3604 3.3973 10.2456 3.13458 10.2456C2.87186 10.2456 2.62666 10.3604 2.44178 10.5706C1.89883 11.1758 1.16905 11.5105 0.390625 11.5105V11.1058C1.05423 11.1058 1.67503 10.8197 2.14014 10.302C2.40286 10.0062 2.75704 9.84277 3.13458 9.84277C3.51212 9.84277 3.8663 10.0062 4.13096 10.302C4.59607 10.8197 5.21687 11.1058 5.88048 11.1058C6.54409 11.1058 7.16488 10.8197 7.62999 10.302C7.89271 10.0062 8.24689 9.84277 8.62443 9.84277C9.00197 9.84277 9.35615 10.0062 9.61887 10.302C10.084 10.8197 10.7048 11.1058 11.3684 11.1058C12.032 11.1058 12.6528 10.8197 13.1179 10.302C13.3806 10.0101 13.7445 9.84082 14.1143 9.84082V10.2456C13.8555 10.2456 13.6083 10.3624 13.4195 10.5725C12.8766 11.1778 12.1488 11.5125 11.3684 11.5125V11.5105Z" fill="#7E88A5"/>
<path id="Vector_11" d="M22.3596 11.5105C21.5792 11.5105 20.8514 11.1778 20.3084 10.5706C20.1216 10.3604 19.8764 10.2456 19.6156 10.2456C19.3549 10.2456 19.1077 10.3604 18.9228 10.5706C18.3799 11.1758 17.6501 11.5105 16.8717 11.5105C16.0933 11.5105 15.3635 11.1778 14.8205 10.5706C14.6337 10.3604 14.3885 10.2456 14.1258 10.2456C13.865 10.2456 13.6179 10.3604 13.433 10.5706C12.89 11.1758 12.1603 11.5105 11.3818 11.5105V11.1058C12.0454 11.1058 12.6662 10.8197 13.1333 10.302C13.396 10.0062 13.7502 9.84277 14.1277 9.84277C14.5053 9.84277 14.8595 10.0062 15.1241 10.302C15.5892 10.8197 16.21 11.1058 16.8736 11.1058C17.5372 11.1058 18.158 10.8197 18.6231 10.302C18.8859 10.0062 19.2401 9.84277 19.6176 9.84277C19.9951 9.84277 20.3493 10.0062 20.612 10.302C21.0771 10.8197 21.6979 11.1058 22.3615 11.1058C23.0252 11.1058 23.6459 10.8197 24.1111 10.302C24.3738 10.0101 24.7377 9.84082 25.1074 9.84082V10.2456C24.8486 10.2456 24.6015 10.3624 24.4127 10.5725C23.8697 11.1778 23.1419 11.5105 22.3615 11.5105H22.3596Z" fill="#7E88A5"/>
</g>
<g id="Group_7">
<path id="Vector_12" d="M11.3684 13.2366C10.588 13.2366 9.86018 12.9038 9.31723 12.2967C9.13041 12.0865 8.8852 11.9717 8.62443 11.9717C8.36366 11.9717 8.11651 12.0865 7.93163 12.2967C7.38868 12.9019 6.6589 13.2366 5.88048 13.2366C5.10205 13.2366 4.37228 12.9038 3.82932 12.2967C3.6425 12.0865 3.3973 11.9717 3.13458 11.9717C2.87186 11.9717 2.62666 12.0865 2.44178 12.2967C1.89883 12.9019 1.16905 13.2366 0.390625 13.2366V12.8318C1.05423 12.8318 1.67503 12.5458 2.14014 12.0281C2.40286 11.7323 2.75704 11.5688 3.13458 11.5688C3.51212 11.5688 3.8663 11.7323 4.13096 12.0281C4.59607 12.5458 5.21687 12.8318 5.88048 12.8318C6.54409 12.8318 7.16488 12.5458 7.62999 12.0281C7.89271 11.7323 8.24689 11.5688 8.62443 11.5688C9.00197 11.5688 9.35615 11.7323 9.61887 12.0281C10.084 12.5458 10.7048 12.8318 11.3684 12.8318C12.032 12.8318 12.6528 12.5458 13.1179 12.0281C13.3806 11.7362 13.7445 11.5669 14.1143 11.5669V11.9717C13.8555 11.9717 13.6083 12.0884 13.4195 12.2986C12.8766 12.9038 12.1488 13.2366 11.3684 13.2366Z" fill="#7E88A5"/>
<path id="Vector_13" d="M22.3596 13.2366C21.5792 13.2366 20.8514 12.9038 20.3084 12.2967C20.1216 12.0865 19.8764 11.9717 19.6156 11.9717C19.3549 11.9717 19.1077 12.0865 18.9228 12.2967C18.3799 12.9019 17.6501 13.2366 16.8717 13.2366C16.0933 13.2366 15.3635 12.9038 14.8205 12.2967C14.6337 12.0865 14.3885 11.9717 14.1258 11.9717C13.865 11.9717 13.6179 12.0865 13.433 12.2967C12.89 12.9019 12.1603 13.2366 11.3818 13.2366V12.8318C12.0454 12.8318 12.6662 12.5458 13.1333 12.0281C13.396 11.7323 13.7502 11.5688 14.1277 11.5688C14.5053 11.5688 14.8595 11.7323 15.1241 12.0281C15.5892 12.5458 16.21 12.8318 16.8736 12.8318C17.5372 12.8318 18.158 12.5458 18.6231 12.0281C18.8859 11.7323 19.2401 11.5688 19.6176 11.5688C19.9951 11.5688 20.3493 11.7323 20.612 12.0281C21.0771 12.5458 21.6979 12.8318 22.3615 12.8318C23.0252 12.8318 23.6459 12.5458 24.1111 12.0281C24.3738 11.7362 24.7377 11.5669 25.1074 11.5669V11.9717C24.8486 11.9717 24.6015 12.0884 24.4127 12.2986C23.8697 12.9038 23.1419 13.2366 22.3615 13.2366H22.3596Z" fill="#7E88A5"/>
</g>
<path id="Vector_14" d="M22.3593 14.9627C21.5789 14.9627 20.8511 14.6299 20.3081 14.0227C20.1213 13.8126 19.8761 13.6977 19.6134 13.6977C19.3506 13.6977 19.1054 13.8126 18.9206 14.0227C18.3776 14.628 17.6478 14.9627 16.8694 14.9627C16.091 14.9627 15.3612 14.6299 14.8183 14.0227C14.6314 13.8126 14.3862 13.6977 14.1235 13.6977C13.8627 13.6977 13.6156 13.8126 13.4307 14.0227C13.2595 14.2154 13.0668 14.3808 12.8586 14.517L12.6367 14.1784C12.8158 14.0617 12.9812 13.9176 13.1291 13.7522C13.3918 13.4564 13.746 13.293 14.1235 13.293C14.501 13.293 14.8552 13.4564 15.1199 13.7522C15.585 14.2699 16.2058 14.556 16.8694 14.556C17.533 14.556 18.1538 14.2699 18.6189 13.7522C18.8816 13.4564 19.2358 13.293 19.6134 13.293C19.9909 13.293 20.3451 13.4564 20.6098 13.7522C21.0749 14.2699 21.6957 14.556 22.3593 14.556C23.0229 14.556 23.6437 14.2699 24.1088 13.7522C24.3715 13.4603 24.7354 13.291 25.1052 13.291V13.6958C24.8463 13.6958 24.5992 13.8126 24.4104 14.0227C23.8675 14.628 23.1396 14.9607 22.3593 14.9607V14.9627Z" fill="#7E88A5"/>
</g>
<path id="Vector_15" d="M22.3602 16.6868C21.5799 16.6868 20.852 16.354 20.3091 15.7469C20.1223 15.5367 19.8771 15.4219 19.6143 15.4219C19.3516 15.4219 19.1064 15.5367 18.9215 15.7469C18.3786 16.3521 17.6488 16.6868 16.8704 16.6868C16.092 16.6868 15.3622 16.354 14.8192 15.7469C14.6324 15.5367 14.3872 15.4219 14.1245 15.4219C13.8637 15.4219 13.6166 15.5367 13.4317 15.7469C13.2604 15.9395 13.0678 16.1049 12.8595 16.2412L12.6377 15.9025C12.8167 15.7858 12.9821 15.6418 13.13 15.4764C13.3928 15.1806 13.747 15.0171 14.1245 15.0171C14.502 15.0171 14.8562 15.1806 15.1209 15.4764C15.586 15.994 16.2068 16.2801 16.8704 16.2801C17.534 16.2801 18.1548 15.994 18.6199 15.4764C18.8826 15.1806 19.2368 15.0171 19.6143 15.0171C19.9919 15.0171 20.3461 15.1806 20.6107 15.4764C21.0758 15.994 21.6966 16.2801 22.3602 16.2801C23.0238 16.2801 23.6446 15.994 24.1098 15.4764C24.3725 15.1844 24.7364 15.0151 25.1061 15.0151V15.4199C24.8473 15.4199 24.6002 15.5367 24.4114 15.7469C23.8684 16.3521 23.1406 16.6849 22.3602 16.6849V16.6868Z" fill="#7E88A5"/>
</g>
<defs>
<clipPath id="clip0_2792_2741">
<rect width="28" height="16.6447" fill="white" transform="translate(0 0.240723)"/>
</clipPath>
</defs>
</svg>
