<svg width="37" height="11" viewBox="0 0 37 11" fill="none" xmlns="http://www.w3.org/2000/svg">
<g id="Frame 427318899">
<path id="Vector" d="M0 0.501627H3.43694C3.74939 0.501627 4.68674 0.397478 5.10334 1.85557C5.41579 2.79292 5.83238 4.25102 6.45728 6.43816H6.66558C7.29048 4.14687 7.81123 2.58462 8.01953 1.85557C8.43613 0.397478 9.47762 0.501627 9.89422 0.501627H13.1229V10.5H9.79007V4.56347H9.58177L7.81123 10.5H5.31164L3.54109 4.56347H3.22864V10.5H0M14.4768 0.501627H17.8096V6.43816H18.122L20.3092 1.54312C20.7258 0.605777 21.6631 0.501627 21.6631 0.501627H24.7876V10.5H21.4548V4.56347H21.2465L19.0594 9.4585C18.6428 10.3959 17.6013 10.5 17.6013 10.5H14.4768M29.2661 7.47966V10.5H26.1416V5.29251H36.3483C35.9317 6.54231 34.4736 7.47966 32.8072 7.47966" fill="#0F754E"/>
<path id="Vector_2" d="M36.5569 4.66794C36.9735 2.79325 35.7237 0.501953 33.0158 0.501953H25.9336C26.1419 2.6891 28.0166 4.66794 29.9954 4.66794" fill="url(#paint0_linear_2658_2380)"/>
</g>
<defs>
<linearGradient id="paint0_linear_2658_2380" x1="35.3071" y1="-0.851993" x2="26.9751" y2="-0.851993" gradientUnits="userSpaceOnUse">
<stop stop-color="#1F5CD7"/>
<stop offset="1" stop-color="#02AEFF"/>
</linearGradient>
</defs>
</svg>
