<svg width="29" height="28" viewBox="0 0 29 28" fill="none" xmlns="http://www.w3.org/2000/svg">
<g id="Social Icons">
<path id="Vector" d="M0.666016 28L2.63418 20.8098C1.41968 18.7052 0.781516 16.3193 0.782682 13.8728C0.786182 6.22417 7.01035 0 14.6579 0C18.369 0.00116667 21.8527 1.44667 24.473 4.06933C27.0922 6.692 28.5342 10.178 28.533 13.8857C28.5295 21.5355 22.3054 27.7597 14.6579 27.7597C12.3362 27.7585 10.0484 27.1763 8.02185 26.0703L0.666016 28ZM8.36252 23.5585C10.3179 24.7193 12.1845 25.4147 14.6532 25.4158C21.0092 25.4158 26.1869 20.2428 26.1904 13.8833C26.1927 7.511 21.0395 2.345 14.6625 2.34267C8.30185 2.34267 3.12768 7.51567 3.12535 13.874C3.12418 16.4698 3.88485 18.4135 5.16235 20.447L3.99685 24.703L8.36252 23.5585ZM21.6474 17.1838C21.561 17.0392 21.33 16.9528 20.9824 16.779C20.6359 16.6052 18.9314 15.7663 18.6129 15.6508C18.2955 15.5353 18.0645 15.477 17.8324 15.8247C17.6014 16.1712 16.9364 16.9528 16.7345 17.1838C16.5327 17.4148 16.3297 17.444 15.9832 17.2702C15.6367 17.0963 14.519 16.7312 13.1949 15.5493C12.1647 14.63 11.4682 13.4948 11.2664 13.1472C11.0645 12.8007 11.2454 12.6128 11.418 12.4402C11.5744 12.285 11.7645 12.0353 11.9384 11.8323C12.1145 11.6317 12.1717 11.487 12.2884 11.2548C12.4039 11.0238 12.3467 10.8208 12.2592 10.647C12.1717 10.4743 11.4787 8.7675 11.1905 8.07333C10.9082 7.39783 10.6224 7.48883 10.41 7.47833L9.74502 7.46667C9.51402 7.46667 9.13835 7.553 8.82102 7.90067C8.50368 8.24833 7.60768 9.086 7.60768 10.7928C7.60768 12.4997 8.85018 14.1482 9.02285 14.3792C9.19668 14.6102 11.467 18.1125 14.9449 19.614C15.772 19.971 16.4184 20.1845 16.9212 20.3443C17.7519 20.608 18.5079 20.5707 19.1052 20.482C19.7714 20.3828 21.1562 19.6432 21.4455 18.8335C21.7349 18.0227 21.7349 17.3285 21.6474 17.1838Z" fill="#292E3A"/>
</g>
</svg>
