<svg width="29" height="28" viewBox="0 0 29 28" fill="none" xmlns="http://www.w3.org/2000/svg">
<g id="Social Icons" clip-path="url(#clip0_2564_4111)">
<path id="Vector" fill-rule="evenodd" clip-rule="evenodd" d="M2.30223 1.96824C0.333984 3.93648 0.333984 7.1043 0.333984 13.44V14.56C0.333984 20.8957 0.333984 24.0635 2.30223 26.0318C4.27047 28 7.43828 28 13.774 28H14.894C21.2297 28 24.3975 28 26.3658 26.0318C28.334 24.0635 28.334 20.8957 28.334 14.56V13.44C28.334 7.1043 28.334 3.93648 26.3658 1.96824C24.3975 0 21.2297 0 14.894 0H13.774C7.43828 0 4.27047 0 2.30223 1.96824ZM5.05905 8.51672C5.21072 15.7967 8.85071 20.1717 15.2324 20.1717H15.5941V16.0067C17.9391 16.2401 19.7123 17.9551 20.424 20.1717H23.7374C22.8274 16.8584 20.4356 15.0267 18.9423 14.3267C20.4356 13.4634 22.5356 11.3634 23.0373 8.51672H20.0272C19.3739 10.8267 17.4374 12.9267 15.5941 13.1251V8.51672H12.584V16.5901C10.7173 16.1234 8.36071 13.8601 8.25571 8.51672H5.05905Z" fill="#292E3A"/>
</g>
<defs>
<clipPath id="clip0_2564_4111">
<rect width="28" height="28" fill="white" transform="translate(0.333984)"/>
</clipPath>
</defs>
</svg>
