<svg width="86" height="87" viewBox="0 0 86 87" fill="none" xmlns="http://www.w3.org/2000/svg">
<g id="heroicons-outline/check-badge">
<path id="Vector" d="M32.25 46.1875L40.3125 54.25L53.75 35.4375M75.25 43.5C75.25 48.0447 72.9939 52.0624 69.5405 54.4943C70.2623 58.6553 69.0166 63.0909 65.8034 66.3041C62.5902 69.5172 58.1547 70.763 53.9937 70.0413C51.5618 73.4942 47.5443 75.75 43 75.75C38.4558 75.75 34.4384 73.4943 32.0065 70.0416C27.8448 70.7641 23.4083 69.5185 20.1946 66.3048C16.9809 63.0911 15.7353 58.6546 16.4577 54.493C13.0054 52.0611 10.75 48.0439 10.75 43.5C10.75 38.9559 13.0056 34.9386 16.4582 32.5066C15.7361 28.3453 16.9818 23.9093 20.1952 20.6959C23.4087 17.4824 27.8448 16.2368 32.0061 16.9589C34.438 13.5059 38.4556 11.25 43 11.25C47.5442 11.25 51.5617 13.5057 53.9936 16.9585C58.1552 16.236 62.5917 17.4816 65.8054 20.6953C69.0191 23.909 70.2647 28.3454 69.5423 32.507C72.9946 34.939 75.25 38.9561 75.25 43.5Z" stroke="#54B863" stroke-width="4" stroke-linecap="round" stroke-linejoin="round"/>
</g>
</svg>
