<svg width="182" height="18" viewBox="0 0 182 18" fill="none" xmlns="http://www.w3.org/2000/svg">
<path d="M8.28 17.676C6.76 17.676 5.368 17.348 4.104 16.692C2.856 16.036 1.856 15.068 1.104 13.788C0.368 12.492 0 10.9 0 9.012C0 7.588 0.216 6.34 0.648 5.268C1.096 4.18 1.704 3.268 2.472 2.532C3.256 1.796 4.144 1.244 5.136 0.875998C6.128 0.507998 7.176 0.323997 8.28 0.323997C9.8 0.323997 11.184 0.651998 12.432 1.308C13.696 1.964 14.696 2.94 15.432 4.236C16.184 5.516 16.56 7.108 16.56 9.012C16.56 10.9 16.192 12.492 15.456 13.788C14.736 15.068 13.752 16.036 12.504 16.692C11.256 17.348 9.848 17.676 8.28 17.676ZM8.28 14.388C9.208 14.388 10 14.164 10.656 13.716C11.312 13.268 11.816 12.644 12.168 11.844C12.52 11.028 12.696 10.084 12.696 9.012C12.696 7.924 12.52 6.98 12.168 6.18C11.816 5.364 11.312 4.732 10.656 4.284C10 3.836 9.208 3.612 8.28 3.612C7.352 3.612 6.56 3.844 5.904 4.308C5.248 4.756 4.744 5.388 4.392 6.204C4.04 7.004 3.864 7.94 3.864 9.012C3.864 10.084 4.04 11.028 4.392 11.844C4.744 12.644 5.248 13.268 5.904 13.716C6.56 14.164 7.352 14.388 8.28 14.388Z" fill="#292E3A"/>
<path d="M22.7179 17.34V3.9H17.7019V0.707998H31.4779V3.9H26.4619V17.34H22.7179Z" fill="#292E3A"/>
<path d="M38.8761 17.556C38.2041 17.556 37.4201 17.524 36.5241 17.46C35.6281 17.412 34.7481 17.3 33.8841 17.124V0.923998C34.7481 0.763999 35.6441 0.659998 36.5721 0.611998C37.5161 0.547998 38.3241 0.515998 38.9961 0.515998C40.9001 0.515998 42.5561 0.803998 43.9641 1.38C45.3881 1.956 46.4921 2.868 47.2761 4.116C48.0601 5.364 48.4521 6.996 48.4521 9.012C48.4521 10.932 48.0601 12.524 47.2761 13.788C46.5081 15.052 45.4041 15.996 43.9641 16.62C42.5401 17.244 40.8441 17.556 38.8761 17.556ZM39.0681 14.34C40.9401 14.34 42.3241 13.868 43.2201 12.924C44.1321 11.98 44.5881 10.676 44.5881 9.012C44.5881 7.268 44.1561 5.948 43.2921 5.052C42.4281 4.156 41.0601 3.708 39.1881 3.708C38.9321 3.708 38.6681 3.716 38.3961 3.732C38.1241 3.732 37.8681 3.748 37.6281 3.78V14.292C37.8041 14.308 38.0041 14.324 38.2281 14.34C38.4681 14.34 38.7481 14.34 39.0681 14.34Z" fill="#292E3A"/>
<path d="M51.5794 17.34V0.707998H62.8114V3.852H55.3234V7.116H61.9714V10.188H55.3234V14.196H63.3634V17.34H51.5794Z" fill="#292E3A"/>
<path d="M66.1341 17.34V0.707998H69.8781V14.124H77.2461V17.34H66.1341Z" fill="#292E3A"/>
<path d="M79.6575 17.34V0.707998H83.4015V6.996C83.8815 6.484 84.3695 5.964 84.8655 5.436C85.3615 4.892 85.8495 4.348 86.3295 3.804C86.8255 3.26 87.2975 2.732 87.7455 2.22C88.2095 1.692 88.6575 1.188 89.0895 0.707998H93.5295C92.9535 1.38 92.3775 2.044 91.8015 2.7C91.2415 3.34 90.6735 3.98 90.0975 4.62C89.5215 5.244 88.9295 5.868 88.3215 6.492C87.7295 7.116 87.1215 7.74 86.4975 8.364C87.1695 8.908 87.8255 9.516 88.4655 10.188C89.1055 10.844 89.7295 11.548 90.3375 12.3C90.9615 13.052 91.5695 13.852 92.1615 14.7C92.7535 15.548 93.3375 16.428 93.9135 17.34H89.4735C89.1375 16.796 88.7375 16.212 88.2735 15.588C87.8255 14.964 87.3295 14.332 86.7855 13.692C86.2575 13.036 85.7055 12.42 85.1295 11.844C84.5535 11.268 83.9775 10.756 83.4015 10.308V17.34H79.6575Z" fill="#292E3A"/>
<path d="M94.9931 17.34C95.8251 14.956 96.6011 12.796 97.3211 10.86C98.0571 8.924 98.7691 7.132 99.4571 5.484C100.161 3.836 100.881 2.244 101.617 0.707998H105.193C105.737 1.86 106.273 3.044 106.801 4.26C107.329 5.476 107.857 6.756 108.385 8.1C108.913 9.428 109.457 10.852 110.017 12.372C110.593 13.892 111.193 15.548 111.817 17.34H107.809C107.633 16.764 107.433 16.172 107.209 15.564C107.001 14.956 106.793 14.348 106.585 13.74H100.105C99.8971 14.348 99.6811 14.956 99.4571 15.564C99.2491 16.172 99.0571 16.764 98.8811 17.34H94.9931ZM100.969 10.764H105.697C105.441 10.044 105.193 9.356 104.953 8.7C104.713 8.044 104.481 7.444 104.257 6.9C104.049 6.356 103.865 5.876 103.705 5.46C103.545 5.044 103.417 4.716 103.321 4.476C103.241 4.716 103.121 5.044 102.961 5.46C102.817 5.876 102.633 6.356 102.409 6.9C102.201 7.444 101.969 8.044 101.713 8.7C101.473 9.356 101.225 10.044 100.969 10.764Z" fill="#292E3A"/>
<path d="M112.65 11.796V8.556H119.61V11.796H112.65Z" fill="#292E3A"/>
<path d="M130.179 17.676C128.387 17.676 126.867 17.34 125.619 16.668C124.387 15.996 123.451 15.012 122.811 13.716C122.187 12.42 121.875 10.852 121.875 9.012C121.875 7.636 122.083 6.412 122.499 5.34C122.931 4.252 123.531 3.34 124.299 2.604C125.067 1.852 125.963 1.284 126.987 0.899997C128.027 0.515997 129.155 0.323997 130.371 0.323997C131.315 0.323997 132.139 0.411998 132.843 0.587998C133.547 0.747998 134.123 0.931998 134.571 1.14C135.019 1.332 135.331 1.484 135.507 1.596L134.427 4.62C133.915 4.348 133.315 4.116 132.627 3.924C131.955 3.732 131.187 3.636 130.323 3.636C129.555 3.636 128.819 3.812 128.115 4.164C127.427 4.516 126.859 5.084 126.411 5.868C125.979 6.636 125.763 7.66 125.763 8.94C125.763 9.964 125.915 10.884 126.219 11.7C126.539 12.516 127.043 13.164 127.731 13.644C128.435 14.124 129.363 14.364 130.515 14.364C131.619 14.364 132.491 14.26 133.131 14.052C133.787 13.828 134.315 13.62 134.715 13.428L135.747 16.428C135.219 16.748 134.475 17.036 133.515 17.292C132.555 17.548 131.443 17.676 130.179 17.676Z" fill="#292E3A"/>
<path d="M138.158 17.34V0.707998H141.902V14.124H149.27V17.34H138.158Z" fill="#292E3A"/>
<path d="M157.951 17.676C156.399 17.676 155.119 17.396 154.111 16.836C153.119 16.26 152.383 15.476 151.903 14.484C151.439 13.492 151.207 12.348 151.207 11.052V0.707998H154.951V10.74C154.951 12.1 155.231 13.06 155.791 13.62C156.367 14.164 157.103 14.436 157.999 14.436C158.911 14.436 159.647 14.156 160.207 13.596C160.783 13.036 161.071 12.084 161.071 10.74V0.707998H164.815V11.052C164.815 12.364 164.567 13.516 164.071 14.508C163.591 15.5 162.847 16.276 161.839 16.836C160.831 17.396 159.535 17.676 157.951 17.676Z" fill="#292E3A"/>
<path d="M173.959 17.556C173.351 17.556 172.743 17.54 172.135 17.508C171.543 17.492 170.935 17.444 170.311 17.364C169.703 17.3 169.071 17.204 168.415 17.076V0.947998C168.927 0.851998 169.471 0.771998 170.047 0.707998C170.639 0.643998 171.231 0.595998 171.823 0.563997C172.415 0.531998 172.967 0.515998 173.479 0.515998C174.887 0.515998 176.135 0.659998 177.223 0.947998C178.311 1.236 179.167 1.724 179.791 2.412C180.415 3.084 180.727 4.012 180.727 5.196C180.727 5.852 180.567 6.444 180.247 6.972C179.927 7.5 179.447 7.956 178.807 8.34C179.863 8.74 180.583 9.284 180.967 9.972C181.351 10.66 181.543 11.436 181.543 12.3C181.543 14.044 180.903 15.356 179.623 16.236C178.359 17.116 176.471 17.556 173.959 17.556ZM174.007 14.484C174.759 14.484 175.415 14.42 175.975 14.292C176.535 14.148 176.967 13.916 177.271 13.596C177.591 13.26 177.751 12.804 177.751 12.228C177.751 11.46 177.463 10.916 176.887 10.596C176.311 10.26 175.487 10.092 174.415 10.092H172.063V14.388C172.335 14.42 172.631 14.444 172.951 14.46C173.271 14.476 173.623 14.484 174.007 14.484ZM172.063 7.236H173.887C174.655 7.236 175.271 7.172 175.735 7.044C176.215 6.916 176.559 6.716 176.767 6.444C176.991 6.156 177.103 5.796 177.103 5.364C177.103 4.692 176.847 4.22 176.335 3.948C175.823 3.676 175.071 3.54 174.079 3.54C173.759 3.54 173.415 3.548 173.047 3.564C172.679 3.564 172.351 3.58 172.063 3.612V7.236Z" fill="#292E3A"/>
</svg>
