<svg width="26" height="24" viewBox="0 0 26 24" fill="none" xmlns="http://www.w3.org/2000/svg">
<g id="Frame">
<path id="Vector" d="M2.5 14V21C2.5 21.828 3.172 22.5 4 22.5H10V16.5H16V22.5H22C22.828 22.5 23.5 21.828 23.5 21V14M24.9775 8.0685L23.62 2.6355C23.4535 1.968 22.8535 1.5 22.165 1.5H3.8365C3.148 1.5 2.548 1.968 2.38 2.6355L1.0225 8.0685C1.0075 8.127 1 8.1885 1 8.25C1 10.317 2.5975 12 4.5625 12C5.704 12 6.7225 11.4315 7.375 10.5495C8.0275 11.4315 9.046 12 10.1875 12C11.329 12 12.3475 11.4315 13 10.5495C13.6525 11.4315 14.6695 12 15.8125 12C16.9555 12 17.9725 11.4315 18.625 10.5495C19.2775 11.4315 20.2945 12 21.4375 12C23.4025 12 25 10.317 25 8.25C25 8.1885 24.9925 8.127 24.9775 8.0685Z" stroke="#2A71DC" stroke-width="1.5" stroke-linecap="round" stroke-linejoin="round"/>
</g>
</svg>
