<svg width="30" height="22" viewBox="0 0 30 22" fill="none" xmlns="http://www.w3.org/2000/svg">
<g id="_&#195;&#144;&#194;&#161;&#195;&#144;&#194;&#187;&#195;&#144;&#194;&#190;&#195;&#144;&#194;&#185;_1">
<path id="Vector" d="M20.5719 18.0039H11.1709" stroke="#292E3A" stroke-width="1.5" stroke-miterlimit="10"/>
<path id="Vector_2" d="M5.57761 18.0031H3.25361C2.20361 18.0031 1.34961 17.1491 1.34961 16.0991V3.10712C1.34961 2.05713 2.20361 1.20312 3.25361 1.20312H19.6336C20.0256 1.20312 20.3966 1.36412 20.6626 1.65112L28.2716 9.86912C28.5096 10.1281 28.6496 10.4711 28.6496 10.8281V16.0991C28.6496 17.1491 27.7956 18.0031 26.7456 18.0031H26.1646" stroke="#292E3A" stroke-width="1.5" stroke-miterlimit="10"/>
<path id="Vector_3" d="M16.2246 1.20312V8.68612C16.2246 9.07112 16.5326 9.37912 16.9176 9.37912H27.8236" stroke="#292E3A" stroke-width="1.5" stroke-miterlimit="10"/>
<path id="Vector_4" d="M8.37796 20.7969C9.92049 20.7969 11.171 19.5465 11.171 18.0039C11.171 16.4614 9.92049 15.2109 8.37796 15.2109C6.83543 15.2109 5.58496 16.4614 5.58496 18.0039C5.58496 19.5465 6.83543 20.7969 8.37796 20.7969Z" stroke="#292E3A" stroke-width="1.5" stroke-miterlimit="10"/>
<path id="Vector_5" d="M23.3653 20.7969C24.9078 20.7969 26.1583 19.5465 26.1583 18.0039C26.1583 16.4614 24.9078 15.2109 23.3653 15.2109C21.8227 15.2109 20.5723 16.4614 20.5723 18.0039C20.5723 19.5465 21.8227 20.7969 23.3653 20.7969Z" stroke="#292E3A" stroke-width="1.5" stroke-miterlimit="10"/>
</g>
</svg>
